<?xml version="1.0" encoding="utf-8"?>
<!-- Generator: Adobe Illustrator 24.3.0, SVG Export Plug-In . SVG Version: 6.00 Build 0)  -->
<svg version="1.1" id="Layer_1" xmlns="http://www.w3.org/2000/svg" xmlns:xlink="http://www.w3.org/1999/xlink" x="0px" y="0px"
	 viewBox="0 0 417.3 387" style="enable-background:new 0 0 417.3 387;" xml:space="preserve">
<style type="text/css">
	.st0{fill:#0BAFD6;}
	.st1{fill:#06A8D9;}
	.st2{fill:#F58634;}
	.st3{fill:#90CA33;}
</style>
<path class="st0" d="M207.2,357.7C116.1,357.7,42,283.6,42,192.4S116.1,27.2,207.2,27.2s165.3,74.1,165.3,165.2
	S298.3,357.7,207.2,357.7z M207.2,37.2C121.6,37.2,52,106.8,52,192.4s69.6,155.2,155.2,155.2S362.5,278,362.5,192.4
	S292.8,37.2,207.2,37.2z"/>
<path class="st0" d="M206.6,305.7c-63.5,0-115-51.5-115-115s51.5-115,115-115s115,51.5,115,115C321.6,254.2,270.1,305.7,206.6,305.7
	z M206.6,84.7c-58.5,0-106,47.5-106,106s47.5,106,106,106s106-47.5,106-106C312.6,132.2,265.2,84.8,206.6,84.7L206.6,84.7z"/>
<path class="st1" d="M172.7,67.2l-2.2,0.6l1.7,6.2l-8.2,2.2l-6.6-24.3l11.7-3.2c2-0.6,4.1-0.8,6.2-0.5c1.8,0.2,3.4,1,4.7,2.1
	c1.3,1.2,2.2,2.8,2.7,4.5c0.5,1.6,0.5,3.3,0.1,4.9c-0.5,1.5-1.4,2.9-2.6,4l7.1,6.1l-8.8,2.4L172.7,67.2z M172.9,55.2
	c-0.9-0.4-1.8-0.4-2.7-0.1l-3,0.8l1.6,5.7l3-0.8c0.9-0.2,1.7-0.7,2.3-1.4C174.8,58,174.3,56.1,172.9,55.2L172.9,55.2z"/>
<path class="st1" d="M212.3,59.7l-0.1,9.2l-8.5-0.1l0.1-9.2l-9.2-16.1l9,0.1l5,8.8l5.3-8.6l8.2,0.1L212.3,59.7z"/>
<path class="st1" d="M248,70.6l-9.2-2.6l-2.8,3.7l-8.3-2.3l17.4-21.3l8,2.3l3.8,27.2l-8.5-2.4L248,70.6z M247.4,64l-0.6-6.8
	l-4.1,5.4L247.4,64z"/>
<path class="st1" d="M93.8,100.1c1-0.9,2.2-1.7,3.5-2.2l2.7,4.6c-1.1,0.5-2.1,1.1-3,1.8c-0.9,0.7-1.7,1.5-2.4,2.4
	c-0.4,0.5-0.8,1.1-1,1.8c-0.1,0.4,0,0.8,0.3,1c0.4,0.3,0.9,0.2,1.2-0.1c0.7-0.5,1.4-1.1,2.1-1.7c1-0.9,2-1.7,3.1-2.5
	c0.9-0.6,2-1,3.1-1.1c1.2-0.1,2.5,0.3,3.4,1.1c1,0.7,1.7,1.7,2.1,2.9c0.4,1.3,0.5,2.7,0.1,4c-0.4,1.7-1.2,3.3-2.3,4.6
	c-0.8,1.1-1.7,2.1-2.7,3c-0.9,0.8-2,1.5-3.1,2l-2.7-4.5c1.7-0.8,3.3-2.1,4.5-3.6c1-1.4,1.2-2.3,0.5-2.8c-0.4-0.2-0.8-0.2-1.2,0.1
	c-0.7,0.5-1.4,1.1-2,1.7c-0.9,0.9-1.9,1.8-3,2.5c-0.9,0.6-2,1-3.1,1.1c-1.2,0.1-2.5-0.3-3.4-1.1c-1-0.7-1.7-1.7-2.1-2.8
	c-0.4-1.3-0.5-2.7-0.1-4c0.4-1.7,1.2-3.3,2.3-4.6C91.5,102.3,92.6,101.1,93.8,100.1z"/>
<path class="st1" d="M77.8,127c4.4-3.6,10.8-2.9,14.4,1.5c1.3,1.6,2.1,3.7,2.3,5.8c0.2,4-1.5,7.9-4.6,10.6c-2.9,2.4-7,3-10.5,1.4
	c-3.5-1.5-5.9-4.8-6.1-8.6C73.1,133.5,74.8,129.6,77.8,127z M79,136.3c0.1,0.8,0.5,1.5,1,2.2c1.2,1.4,3,2.2,4.8,2.1
	c0.8-0.1,1.6-0.3,2.2-0.8c0.6-0.5,1.2-1.1,1.5-1.8c0.3-0.7,0.4-1.5,0.3-2.3c-0.1-0.8-0.5-1.5-1-2.2c-1.2-1.4-3-2.2-4.8-2.1
	c-0.8,0.1-1.6,0.3-2.2,0.8C79.5,133.1,78.8,134.7,79,136.3z"/>
<path class="st1" d="M86.3,158.8l-1.3,6.6l-14.4-2.8l-1.7,8.8l-5.1-1l3-15.4L86.3,158.8z"/>
<path class="st1" d="M64.7,185.2c1.8-1.8,4.3-2.8,6.9-2.7l10.9-0.2l0.1,6.7l-10.8,0.2c-1.1-0.1-2.2,0.2-3.2,0.8
	c-1.2,1.2-1.3,3.1-0.1,4.3c0.1,0.1,0.1,0.1,0.2,0.2c1,0.6,2.1,0.8,3.2,0.7l10.7-0.2l0.1,6.6l-10.9,0.2c-2.6,0.2-5.1-0.7-7-2.4
	C61.5,195.3,61.4,189.4,64.7,185.2L64.7,185.2z"/>
<path class="st1" d="M66.7,220.1c0.4-1.8,1.3-3.4,2.7-4.7c1.3-1.3,3-2.3,4.9-2.7c1.8-0.5,3.8-0.4,5.6,0.1c1.8,0.6,3.3,1.6,4.5,3
	c1.3,1.5,2.2,3.3,2.6,5.2c0.5,1.7,0.5,3.5,0.2,5.3c-0.3,1.6-1,3.1-2,4.4l-4.7-3.2c1.2-1.3,1.6-3.1,1.2-4.8c-0.2-1.3-1-2.3-2.1-3
	c-1.2-0.6-2.6-0.8-3.8-0.4c-1.3,0.2-2.5,1-3.2,2.1c-0.7,1.1-0.9,2.4-0.5,3.6c0.4,1.7,1.7,3.1,3.3,3.7l-2.7,5
	c-1.5-0.7-2.8-1.7-3.8-2.9c-1.1-1.4-1.8-3.1-2.2-4.8C66.2,224,66.2,222,66.7,220.1z"/>
<path class="st1" d="M92,237.8l2.7,6.2l-18.2,8l-2.7-6.1L92,237.8z"/>
<path class="st1" d="M86,267.6c-0.5-3.8,1.2-7.5,4.3-9.6c3.1-2.2,7.2-2.5,10.6-0.7c3.5,2,6,5.5,6.6,9.5c0.7,5.6-3.2,10.7-8.8,11.4
	c-2.1,0.3-4.3-0.1-6.1-1.1C89,275.2,86.6,271.6,86,267.6z M94.4,271.5c0.7,0.3,1.5,0.4,2.3,0.3c0.9-0.1,1.8-0.5,2.5-1
	c0.8-0.5,1.4-1.2,1.8-2c0.4-0.7,0.5-1.5,0.5-2.3c-0.1-0.8-0.3-1.6-0.8-2.2c-0.5-0.7-1.1-1.2-1.8-1.5c-0.7-0.3-1.6-0.4-2.3-0.3
	c-0.9,0.1-1.8,0.5-2.5,1c-0.8,0.5-1.4,1.2-1.8,2c-0.4,0.7-0.6,1.5-0.5,2.3c0,0.8,0.3,1.6,0.8,2.2C93.1,270.7,93.7,271.2,94.4,271.5
	L94.4,271.5z"/>
<path class="st1" d="M131.8,290.3l-13.3,14.8l-4.1-3.7l0.4-11.8l-6,6.7l-4.9-4.4l13.3-14.8l4.1,3.7l-0.4,11.8l6-6.7L131.8,290.3z"/>
<path class="st1" d="M146.9,316.8l-2.5,4.4l-14.4-8.1l9.8-17.3l14.1,8l-2.5,4.4l-8.4-4.8l-1.1,2l7.3,4.1l-2.4,4.2l-7.3-4.1l-1.3,2.3
	L146.9,316.8z"/>
<path class="st1" d="M159,327.1c-1.2-0.7-2.3-1.6-3.2-2.6l3.6-4c0.8,0.9,1.7,1.6,2.6,2.2c0.9,0.6,2,1.2,3.1,1.5
	c0.6,0.2,1.3,0.4,2,0.4c0.4,0,0.7-0.2,0.8-0.6c0.1-0.4-0.1-0.9-0.5-1.1c-0.7-0.5-1.5-1-2.2-1.4c-1.2-0.6-2.3-1.4-3.3-2.2
	c-0.9-0.7-1.6-1.5-2-2.5c-0.5-1.2-0.5-2.5,0-3.6c0.4-1.2,1-2.2,2-2.9c1.1-0.8,2.4-1.3,3.7-1.3c1.7-0.1,3.5,0.1,5.1,0.7
	c1.3,0.4,2.5,1,3.7,1.6c1.1,0.6,2.1,1.4,2.9,2.3l-3.4,4c-1.3-1.4-3-2.5-4.8-3.1c-1.6-0.5-2.6-0.4-2.9,0.4c-0.1,0.4,0.1,0.9,0.5,1.1
	c0.7,0.5,1.4,1,2.2,1.4c1.2,0.6,2.3,1.3,3.4,2.1c0.9,0.7,1.6,1.5,2,2.5c0.5,1.2,0.5,2.4,0,3.6c-0.3,1.2-1,2.2-2,2.9
	c-1.1,0.8-2.4,1.3-3.7,1.3c-1.7,0.1-3.5-0.1-5.1-0.7C161.8,328.6,160.4,328,159,327.1z"/>
<path class="st1" d="M216.5,332.1l-7.6,0.2l-1.2,3.5l-6.8,0.2l8.1-20.2l6.6-0.2l9.3,19.6l-6.9,0.2L216.5,332.1z M214.5,327.4
	l-2.1-4.9l-1.8,5.1L214.5,327.4z"/>
<path class="st1" d="M254,328.6l-2.5-8.7l-2.2,8.2l-2.8,0.8l-6.1-5.5l2.4,8.4l-5.9,1.7l-5.4-19.1l5.3-1.5l9.1,8.4l3.2-11.9l5.3-1.5
	l5.5,19.1L254,328.6z"/>
<path class="st1" d="M284.9,304.5c1,0.4,1.8,1.2,2.3,2.1c0.9,1.4,0.9,3.1,0.1,4.6c-1.1,1.9-2.8,3.4-4.7,4.4l-9.7,5.6l-9.9-17.3
	l9.2-5.3c1.8-1.2,3.8-1.8,5.9-1.8c1.5,0.1,2.9,0.9,3.6,2.3c0.5,0.8,0.7,1.6,0.6,2.5c-0.1,0.9-0.4,1.8-0.9,2.6
	C282.6,303.9,283.8,304,284.9,304.5z M271.1,304.6l1.5,2.6l2.7-1.6c1.3-0.7,1.6-1.5,1.2-2.4s-1.4-0.9-2.6-0.2L271.1,304.6z
	 M281,309.3c-0.5-0.9-1.4-1-2.7-0.2l-3.5,2l1.6,2.7l3.5-2C281.1,311,281.5,310.2,281,309.3z"/>
<path class="st1" d="M287.1,288.3l5.1-4.3l12.9,15.2l-5.1,4.3L287.1,288.3z"/>
<path class="st1" d="M321.7,274l3.9,3.3L314.9,290l-15.2-12.8l10.4-12.4l3.9,3.2l-6.2,7.3l1.8,1.5l5.4-6.4l3.7,3.1l-5.5,6.5l2,1.7
	L321.7,274z"/>
<path class="st1" d="M324.6,239.7l17.6,9.3l-2.6,4.9l-11.5,2.5l8,4.2l-3,5.8l-17.6-9.2l2.5-4.9l11.5-2.5l-8-4.2L324.6,239.7z"/>
<path class="st1" d="M334.1,227.8l-1.5,5.6l-5-1.4l4.8-17.7l5,1.4l-1.5,5.6l14.2,3.9l-1.8,6.5L334.1,227.8z"/>
<path class="st1" d="M350.8,193.6l-0.4,7.6l3.4,1.5l-0.3,6.8l-19.5-9.7l0.3-6.6l20.3-7.7l-0.4,6.9L350.8,193.6z M345.9,195.2
	l-5.1,1.7l4.9,2.2L345.9,195.2z"/>
<path class="st1" d="M333.9,176.9l-1.1-6.6l14.5-2.3l-1.4-8.9l5.1-0.8l2.5,15.5L333.9,176.9z"/>
<path class="st1" d="M337.3,132.6l4.7-1.8l5.8,15.5l-18.6,7l-5.7-15.1l4.7-1.8l3.4,9l2.2-0.8l-3-7.9l4.5-1.7l3,7.9l2.5-0.9
	L337.3,132.6z"/>
<path class="st1" d="M334.6,116.9c0.5,1.3,0.7,2.7,0.8,4.1l-5.3,0.8c0-1.2-0.2-2.3-0.6-3.4c-0.3-1.1-0.8-2.2-1.4-3.1
	c-0.3-0.6-0.8-1.1-1.3-1.5c-0.3-0.2-0.7-0.3-1-0.1c-0.4,0.3-0.5,0.7-0.4,1.2c0.2,0.9,0.5,1.7,0.8,2.5c0.5,1.2,0.9,2.5,1.2,3.8
	c0.2,1.1,0.2,2.2-0.1,3.2c-0.4,1.2-1.2,2.2-2.3,2.8c-1,0.7-2.2,1-3.5,0.9c-1.3-0.1-2.6-0.6-3.7-1.4c-1.4-1-2.6-2.3-3.5-3.8
	c-0.7-1.1-1.3-2.4-1.8-3.7c-0.4-1.2-0.7-2.4-0.8-3.6l5.2-0.9c0.1,1.9,0.7,3.8,1.7,5.5c0.9,1.5,1.7,2,2.4,1.5
	c0.3-0.3,0.5-0.7,0.4-1.1c-0.2-0.9-0.5-1.7-0.8-2.5c-0.5-1.2-0.9-2.5-1.2-3.8c-0.2-1.1-0.2-2.2,0.1-3.3c0.4-1.2,1.2-2.2,2.3-2.8
	c1-0.7,2.2-1,3.4-0.9c1.3,0.1,2.6,0.6,3.7,1.4c1.4,1,2.6,2.3,3.5,3.8C333.4,113.9,334.1,115.4,334.6,116.9z"/>
<path class="st2" d="M178,226.5c8.6-2.9,20.2-4.4,30.2-1.5c0.5,0.1,0.9,0.3,1.4,0.5l2.8-5.1c-12.7-7.2-29.7-2.1-33-0.9
	c-9.2,3.3-19,5-28.8,5.1c-4.4,0-8.9-0.4-13.2-1.3c1.5,2.6,3.2,5.1,5,7.5C151,231.8,163,231.6,178,226.5z"/>
<path class="st2" d="M204.6,234.7l1.8-3.3l1.5-2.7c-0.5,0-0.9-0.1-1.4-0.2c-11.5-3.3-24.2,0.6-27,1.6c-9.2,3.3-19,5-28.8,5.1
	c-1.6,0-3.2-0.1-4.6-0.2c2.2,2.4,4.6,4.7,7.1,6.8c8.4-0.4,16.8-2,24.7-4.8C185.6,234.5,195.5,233,204.6,234.7z"/>
<path class="st2" d="M178,215.9c10.5-3.6,25.3-5,36.4,1.1l4.3-7.7h-8l15.9-28.6h-11.1l24.9-44.6c-29.2-24.1-72.4-19.9-96.5,9.3
	c-17,20.6-20.4,49.2-8.9,73.2C143,220.8,157.8,222.8,178,215.9z"/>
<path class="st2" d="M202.6,238.3c-10.3-1.6-20.6,1.6-23.1,2.4c-7,2.4-14.2,4-21.5,4.7c23.6,16.2,54.8,16,78.2-0.4v-4.3h-35
	L202.6,238.3z"/>
<polygon class="st3" points="271.6,204 279.5,204 263.6,175.4 274.8,175.4 249.6,130.3 224.5,175.4 235.7,175.4 219.8,204 
	227.7,204 210.2,235.4 241.4,235.4 241.4,259.4 255.5,259.4 255.5,235.4 289.1,235.4 "/>
</svg>
